<svg width="75" height="124" viewBox="0 0 75 124" fill="none" xmlns="http://www.w3.org/2000/svg">
<path d="M72.7328 2.80891L72.3567 27.0761C72.3072 32.0209 71.3095 36.9105 69.4174 41.4804C67.3749 46.3453 64.1231 51.2681 59.2744 51.5108C59.2744 51.5108 48.1131 51.6148 45.6193 34.6913C45.3012 32.443 45.1677 30.1724 45.22 27.9023L45.7234 2.05778" stroke="black" stroke-width="3" stroke-miterlimit="10"/>
<path d="M54.8712 2L54.3157 31.2304" stroke="black" stroke-width="3" stroke-miterlimit="10"/>
<path d="M63.0527 2.23112L62.4915 31.4673" stroke="black" stroke-width="3" stroke-miterlimit="10"/>
<path d="M13.4487 2.80891C14.5311 2.42559 15.6785 2.25941 16.8253 2.3199C17.9722 2.38038 19.0957 2.66633 20.1316 3.16136C24.5637 5.27607 31.5649 11.366 30.778 28.613C30.778 28.613 29.8001 49.9912 15.6879 50.7423C15.6879 50.7423 2.5651 49.893 1.59882 28.7863C1.59882 28.8094 0.0597262 7.51789 13.4487 2.80891Z" stroke="black" stroke-width="3" stroke-miterlimit="10"/>
<path d="M15.6879 50.7423C13.2847 62.469 12.054 74.405 12.0137 86.3746C12.0137 86.3746 12.7023 104.61 12.98 107.516C12.98 107.516 12.7428 122.995 19.5414 121.961C19.5414 121.961 26.7277 121.914 24.9861 105.395C24.8704 104.24 24.7797 103.098 24.7142 101.969L23.5164 80.2731C23.4518 78.6511 23.0415 77.0615 22.3129 75.6104C21.5608 74.1544 20.392 72.7619 18.6909 72.7619C17.9506 72.7848 17.2434 73.073 16.6984 73.5737C16.1534 74.0745 15.807 74.7543 15.7226 75.489C15.2875 78.9166 16.1704 82.3814 18.1933 85.1844C18.1933 85.1844 29.6092 98.9011 37.2873 102.57C37.2873 102.57 52.9097 93.7819 57.9146 84.3408C57.9146 84.3408 63.0469 76.038 57.4402 73.2068C57.4402 73.2068 52.8113 71.6294 52.1459 83.4394C52.0939 84.4737 52.0129 85.5079 51.9087 86.5306L49.4438 110.012C49.4438 110.012 48.628 120.99 54.2636 122.18C54.2636 122.18 61.016 124.058 61.7508 107.943C61.7508 107.943 63.261 87.8653 63.4866 76.8931C63.5388 74.1447 63.4055 71.3959 63.0874 68.6654C62.4509 63.107 61.1259 52.129 60.5357 51.1641" stroke="black" stroke-width="3" stroke-miterlimit="10"/>
</svg>
